<svg width="42" height="53" viewBox="0 0 42 53" fill="none" xmlns="http://www.w3.org/2000/svg">
<g clip-path="url(#clip0_62_2518)">
<path d="M32.275 16.9999C29.815 16.9999 27.4917 17.9888 25.8346 19.7016L13.825 30.7202C12.7317 31.8503 11.2796 32.4683 9.725 32.4683C6.53042 32.4683 3.91667 29.8019 3.91667 26.4999C3.91667 23.1979 6.53042 20.5315 9.725 20.5315C11.2796 20.5315 12.7317 21.1495 13.8933 22.3503L15.8238 24.1161L18.4375 21.7499L16.2508 19.7899C15.3953 18.9023 14.3782 18.1987 13.2581 17.7198C12.1379 17.2409 10.9371 16.9963 9.725 16.9999C4.63417 16.9999 0.5 21.2731 0.5 26.4999C0.5 31.7267 4.63417 35.9999 9.725 35.9999C12.185 35.9999 14.5083 35.011 16.1654 33.2982L28.175 22.2796C29.2683 21.1495 30.7204 20.5315 32.275 20.5315C35.4696 20.5315 38.0833 23.1979 38.0833 26.4999C38.0833 29.8019 35.4696 32.4683 32.275 32.4683C30.7375 32.4683 29.2683 31.8503 28.1067 30.6495L26.125 28.8661L23.5625 31.2322L25.7492 33.2099C26.607 34.0931 27.625 34.7926 28.7448 35.2683C29.8646 35.744 31.0643 35.9866 32.275 35.9822C37.3658 35.9822 41.5 31.7267 41.5 26.4999C41.5 21.2025 37.3658 16.9999 32.275 16.9999Z" fill="#02E4C0"/>
</g>
<defs>
<clipPath id="clip0_62_2518">
<rect width="41" height="53" fill="white" transform="translate(0.5 -0.00012207)"/>
</clipPath>
</defs>
</svg>
